<svg width="27" height="28" viewBox="0 0 27 28" fill="none" xmlns="http://www.w3.org/2000/svg">
<path d="M11.4025 24.281C7.28779 25.6694 3.85948 24.281 1.80273 19.9995" stroke="#1679AB" stroke-width="2.4" stroke-linecap="round" stroke-linejoin="round"/>
<path d="M11.4024 26V22.1097C11.4024 21.3921 11.6232 20.7681 11.9784 20.2041C12.2232 19.8178 12.0552 19.2682 11.6148 19.1482C7.96332 18.1426 5.40259 16.5286 5.40259 11.1744C5.40259 9.78242 5.85858 8.47445 6.66016 7.33448C6.85935 7.05129 6.96015 6.90969 6.98415 6.7825C7.00815 6.6529 6.96615 6.4861 6.88215 6.15011C6.54256 4.78695 6.56536 3.33858 7.07415 2.03422C7.07415 2.03422 8.12652 1.68983 10.5229 3.18619C11.07 3.52818 11.3436 3.69977 11.5848 3.73817C11.826 3.77657 12.1476 3.69618 12.7908 3.53538C13.7104 3.30738 14.6549 3.19491 15.6023 3.20059C16.5498 3.19654 17.4941 3.30939 18.4139 3.53658C19.057 3.69738 19.3798 3.77657 19.621 3.73937C19.861 3.70097 20.1346 3.52938 20.6818 3.18739C23.0781 1.69103 24.1305 2.03542 24.1305 2.03542C24.6393 3.33978 24.6621 4.78815 24.3225 6.15131C24.2385 6.4873 24.1977 6.6553 24.2217 6.7825C24.2457 6.90969 24.3453 7.05249 24.5445 7.33568C25.3461 8.47565 25.8021 9.78362 25.8021 11.1756C25.8021 16.5298 23.2413 18.1438 19.5898 19.147C19.1494 19.2682 18.9814 19.8178 19.2262 20.203C19.5814 20.7669 19.8022 21.3909 19.8022 22.1097V26" stroke="#1679AB" stroke-width="2.4" stroke-linecap="round" stroke-linejoin="round"/>
</svg>
