<svg width="25" height="24" viewBox="0 0 25 24" fill="none" xmlns="http://www.w3.org/2000/svg">
<path d="M20.8027 0C21.8636 0 22.881 0.421428 23.6312 1.17157C24.3813 1.92172 24.8027 2.93913 24.8027 4V20C24.8027 21.0609 24.3813 22.0783 23.6312 22.8284C22.881 23.5786 21.8636 24 20.8027 24H4.80273C3.74187 24 2.72445 23.5786 1.97431 22.8284C1.22416 22.0783 0.802734 21.0609 0.802734 20V4C0.802734 2.93913 1.22416 1.92172 1.97431 1.17157C2.72445 0.421428 3.74187 0 4.80273 0H20.8027ZM20.8027 2.66667H4.80273C4.44911 2.66667 4.10997 2.80714 3.85993 3.05719C3.60988 3.30724 3.4694 3.64638 3.4694 4V20C3.4694 20.3536 3.60988 20.6928 3.85993 20.9428C4.10997 21.1929 4.44911 21.3333 4.80273 21.3333H20.8027C21.1564 21.3333 21.4955 21.1929 21.7455 20.9428C21.9956 20.6928 22.1361 20.3536 22.1361 20V4C22.1361 3.64638 21.9956 3.30724 21.7455 3.05719C21.4955 2.80714 21.1564 2.66667 20.8027 2.66667ZM7.4694 9.33333C7.79598 9.33338 8.11119 9.45328 8.35523 9.67029C8.59928 9.8873 8.75519 10.1863 8.7934 10.5107L8.80274 10.6667V17.3333C8.80236 17.6732 8.67223 18 8.43894 18.2472C8.20565 18.4943 7.8868 18.643 7.54754 18.6629C7.20829 18.6828 6.87423 18.5724 6.61363 18.3543C6.35302 18.1362 6.18554 17.8268 6.1454 17.4893L6.13607 17.3333V10.6667C6.13607 10.313 6.27654 9.97391 6.52659 9.72386C6.77664 9.47381 7.11578 9.33333 7.4694 9.33333ZM11.4694 8C11.7817 7.99995 12.084 8.1095 12.3238 8.30955C12.5636 8.5096 12.7255 8.78745 12.7814 9.09467C13.05 8.93957 13.3273 8.80023 13.6121 8.67733C14.5014 8.29733 15.8334 8.088 17.0361 8.46533C17.6667 8.66533 18.3001 9.03867 18.7694 9.67467C19.1894 10.2413 19.4161 10.9307 19.4614 11.7053L19.4694 12V17.3333C19.469 17.6732 19.3389 18 19.1056 18.2472C18.8723 18.4943 18.5535 18.643 18.2142 18.6629C17.875 18.6828 17.5409 18.5724 17.2803 18.3543C17.0197 18.1362 16.8522 17.8268 16.8121 17.4893L16.8027 17.3333V12C16.8027 11.56 16.6961 11.3547 16.6267 11.26C16.5271 11.1363 16.39 11.0484 16.2361 11.0093C15.7721 10.8627 15.1041 10.94 14.6601 11.1293C13.9934 11.4147 13.3827 11.8627 12.9667 12.2773L12.8027 12.4533V17.3333C12.8024 17.6732 12.6722 18 12.4389 18.2472C12.2056 18.4943 11.8868 18.643 11.5475 18.6629C11.2083 18.6828 10.8742 18.5724 10.6136 18.3543C10.353 18.1362 10.1855 17.8268 10.1454 17.4893L10.1361 17.3333V9.33333C10.1361 8.97971 10.2765 8.64057 10.5266 8.39052C10.7766 8.14048 11.1158 8 11.4694 8ZM7.4694 5.33333C7.82302 5.33333 8.16216 5.47381 8.41221 5.72386C8.66226 5.97391 8.80274 6.31305 8.80274 6.66667C8.80274 7.02029 8.66226 7.35943 8.41221 7.60948C8.16216 7.85952 7.82302 8 7.4694 8C7.11578 8 6.77664 7.85952 6.52659 7.60948C6.27654 7.35943 6.13607 7.02029 6.13607 6.66667C6.13607 6.31305 6.27654 5.97391 6.52659 5.72386C6.77664 5.47381 7.11578 5.33333 7.4694 5.33333Z" fill="#1679AB"/>
</svg>
