<svg width="37" height="28" viewBox="0 0 37 28" fill="none" xmlns="http://www.w3.org/2000/svg">
<path d="M22.2817 13.9999L16.3662 17.3802V10.6196L22.2817 13.9999Z" fill="#1679AB" stroke="#1679AB" stroke-width="2" stroke-linecap="round" stroke-linejoin="round"/>
<path d="M2 15.1966V12.8034C2 7.91042 2 5.4631 3.52958 3.88958C5.06084 2.31437 7.47099 2.24676 12.2896 2.10986C14.5713 2.04563 16.9037 2 18.9014 2C20.8992 2 23.2299 2.04563 25.5132 2.10986C30.3318 2.24676 32.742 2.31437 34.2715 3.88958C35.8011 5.46479 35.8028 7.91211 35.8028 12.8034V15.1949C35.8028 20.0896 35.8028 22.5352 34.2732 24.1104C32.742 25.6839 30.3335 25.7532 25.5132 25.8885C23.2315 25.9544 20.8992 26 18.9014 26C16.9037 26 14.573 25.9544 12.2896 25.8885C7.47099 25.7532 5.06084 25.6856 3.52958 24.1104C1.99831 22.5352 2 20.0879 2 15.1966Z" stroke="#1679AB" stroke-width="2.4"/>
</svg>
