<?xml version="1.0" encoding="UTF-8" standalone="no"?>
<!-- Created with Inkscape (http://www.inkscape.org/) -->

<svg
   width="141.15469mm"
   height="121.93956mm"
   viewBox="0 0 141.15469 121.93956"
   version="1.1"
   id="svg507"
   xmlns="http://www.w3.org/2000/svg"
   xmlns:svg="http://www.w3.org/2000/svg">
  <defs
     id="defs504" />
  <g
     id="layer1"
     transform="translate(-25.174919,-85.15286)">
    <path
       fill-rule="evenodd"
       clip-rule="evenodd"
       d="m 27.137865,137.0875 c 0.0071,2.67781 0.192997,5.32888 0.51149,7.92744 l 13.520475,2.62451 4.274253,13.15333 -9.311141,10.29957 c 2.627521,4.7027 5.785631,9.04979 9.379552,12.97933 l 12.467653,-5.96311 11.090277,8.07277 -1.569907,13.90332 c 4.629991,2.12121 9.54228,3.75144 14.658001,4.78487 l 6.707342,-12.2383 13.65794,0.0181 6.70771,12.2322 c 5.27736,-1.08141 10.33793,-2.76227 15.10209,-4.99188 l -1.66336,-13.8887 11.05979,-8.15022 12.50131,5.85643 c 3.57096,-3.94356 6.70893,-8.30954 9.31576,-13.03691 l -9.36902,-10.22361 4.20869,-13.1787 13.51199,-2.73441 c 0.31047,-2.74076 0.4841,-5.54611 0.46958,-8.40063 -0.0298,-2.60587 -0.19586,-5.16434 -0.48037,-7.69085 l -13.52456,-2.66405 -4.23236,-13.1671 9.3714,-10.27345 c -2.63648,-4.706099 -5.77835,-9.099086 -9.37384,-13.039782 l -12.49074,5.92309 -11.06722,-8.105266 -53.927332,0.185129 -11.023415,8.198506 -12.51595,-5.821598 C 41.53122,93.64936 38.401506,98.022704 35.81458,102.74579 l 9.426434,10.18563 -4.161556,13.21958 -13.522242,2.75586 c -0.284688,2.69377 -0.444109,5.42589 -0.419351,8.18064 z m 92.246055,-20.4872 c -10.91221,-13.27561 -30.304832,-14.97335 -43.326793,-3.9386 -13.050169,11.04067 -14.836568,30.73835 -3.904236,43.99198 10.872965,13.22566 30.276049,14.98084 43.285139,3.88991 13.06089,-11.02505 14.79549,-30.68353 3.94589,-43.94329 z"
       fill="#7bc9ff"
       stroke="#1679ab"
       stroke-width="3.92086"
       id="path132"
       style="fill:#1679ab;fill-opacity:1" />
  </g>
</svg>
