<svg width="20" height="21" viewBox="0 0 20 21" fill="none" xmlns="http://www.w3.org/2000/svg">
<path d="M19.9446 7.21514C20.0772 7.55505 19.9653 7.93403 19.6793 8.17626L17.8848 9.71563C17.9304 10.0399 17.9552 10.372 17.9552 10.708C17.9552 11.044 17.9304 11.3761 17.8848 11.7004L19.6793 13.2398C19.9653 13.482 20.0772 13.861 19.9446 14.2009C19.7622 14.6658 19.5425 15.1112 19.2897 15.541L19.0949 15.8575C18.8214 16.2872 18.5147 16.6936 18.179 17.0764C17.9345 17.3577 17.5284 17.4515 17.1636 17.3421L14.8552 16.6506C14.2998 17.053 13.6865 17.389 13.0317 17.643L12.5136 19.8739C12.4307 20.2294 12.1406 20.5107 11.7593 20.5693C11.1874 20.6592 10.5989 20.7061 9.99793 20.7061C9.39699 20.7061 8.80848 20.6592 8.23654 20.5693C7.85526 20.5107 7.56515 20.2294 7.48226 19.8739L6.96421 17.643C6.30939 17.389 5.69601 17.053 5.14066 16.6506L2.83635 17.346C2.47164 17.4554 2.06549 17.3577 1.82097 17.0803C1.48527 16.6975 1.17858 16.2911 0.90505 15.8614L0.710262 15.5449C0.457452 15.1151 0.237797 14.6697 0.0554424 14.2048C-0.0771793 13.8649 0.0347202 13.4859 0.320686 13.2437L2.11522 11.7043C2.06963 11.3761 2.04477 11.044 2.04477 10.708C2.04477 10.372 2.06963 10.0399 2.11522 9.71563L0.320686 8.17626C0.0347202 7.93403 -0.0771793 7.55505 0.0554424 7.21514C0.237797 6.7502 0.457452 6.3048 0.710262 5.87503L0.90505 5.55857C1.17858 5.12879 1.48527 4.72246 1.82097 4.33958C2.06549 4.05827 2.47164 3.9645 2.83635 4.0739L5.1448 4.76544C5.70015 4.36302 6.31353 4.02702 6.96835 3.77306L7.4864 1.54216C7.56929 1.18662 7.8594 0.905312 8.24069 0.846707C8.81262 0.752939 9.40113 0.706055 10.0021 0.706055C10.603 0.706055 11.1915 0.752939 11.7635 0.8428C12.1447 0.901405 12.4349 1.18271 12.5177 1.53825L13.0358 3.76915C13.6906 4.02311 14.304 4.35911 14.8593 4.76153L17.1678 4.06999C17.5325 3.9606 17.9387 4.05827 18.1832 4.33567C18.5189 4.71856 18.8256 5.12489 19.0991 5.55466L19.2939 5.87113C19.5467 6.3009 19.7663 6.7463 19.9487 7.21123L19.9446 7.21514ZM10.0021 13.8336C10.8814 13.8336 11.7247 13.5043 12.3465 12.9181C12.9683 12.332 13.3176 11.537 13.3176 10.708C13.3176 9.87905 12.9683 9.08403 12.3465 8.49787C11.7247 7.9117 10.8814 7.5824 10.0021 7.5824C9.12274 7.5824 8.27941 7.9117 7.65763 8.49787C7.03584 9.08403 6.68653 9.87905 6.68653 10.708C6.68653 11.537 7.03584 12.332 7.65763 12.9181C8.27941 13.5043 9.12274 13.8336 10.0021 13.8336Z" fill="white"/>
</svg>
